<svg xmlns="http://www.w3.org/2000/svg" width="28" height="28" viewBox="0 0 28 28"><defs><style>.cls-1{fill:#152e4d;}.cls-2,.cls-3{fill:#fff;}.cls-3{fill-rule:evenodd;}</style></defs><g id="Layer_3" data-name="Layer 3"><rect class="cls-1" width="28" height="28" rx="2"/></g><g id="Layer_1" data-name="Layer 1"><g id="click"><path class="cls-2" d="M14.14,21.1l-2.83-8.69a.85.85,0,0,1,1.09-1.06l8.66,3a.85.85,0,0,1,.32,1.4L20,17.13l3.73,3.73a.85.85,0,0,1,0,1.2l-1.69,1.69a.85.85,0,0,1-1.2,0L17.13,20l-1.62,1.45A.85.85,0,0,1,14.14,21.1Z"/><path class="cls-3" d="M9.81,13.27a.75.75,0,0,1,0,1.06L7.19,17a.76.76,0,0,1-1.07-1.07l2.62-2.61A.75.75,0,0,1,9.81,13.27Z"/><path class="cls-3" d="M17,6.12a.77.77,0,0,1,0,1.07L14.33,9.81a.75.75,0,0,1-1.06-1.07l2.61-2.62A.77.77,0,0,1,17,6.12Z"/><path class="cls-3" d="M4,11.42a.76.76,0,0,1,.75-.76H8.32a.76.76,0,1,1,0,1.51H4.75A.76.76,0,0,1,4,11.42Z"/><path class="cls-3" d="M6.12,6.12a.77.77,0,0,1,1.07,0L9.81,8.74A.76.76,0,0,1,8.74,9.81L6.12,7.19A.77.77,0,0,1,6.12,6.12Z"/><path class="cls-3" d="M11.66,4a.76.76,0,0,1,.75.75V8.32a.76.76,0,1,1-1.51,0V4.75A.76.76,0,0,1,11.66,4Z"/></g></g></svg>