<svg xmlns="http://www.w3.org/2000/svg" xmlns:xlink="http://www.w3.org/1999/xlink" width="43" height="42" viewBox="0 0 43 42"><defs><style>.a{fill:#fff;}.b{fill:url(#a);}.c,.d{fill:none;}.c{stroke:#e5f5ff;}.d{stroke:#bacdd6;}.e{fill:#2e3192;}.f{fill:#f7931e;}</style><radialGradient id="a" cx="-73.9524" cy="-48.5714" r="0.9832" gradientTransform="translate(-998.5 1574) rotate(90) scale(21)" gradientUnits="userSpaceOnUse"><stop offset="0" stop-color="#fdfeff"/><stop offset="1" stop-color="#e3edf7"/></radialGradient></defs><circle class="a" cx="21.5" cy="21" r="20.1564"/><circle class="b" cx="21.5" cy="21" r="20.1564"/><circle class="c" cx="21.5" cy="21" r="20.1564"/><circle class="d" cx="21.5" cy="21" r="20.1564"/><circle class="e" cx="18.6437" cy="12.6818" r="4.867"/><path class="f" d="M17.53,17.5488q0-2.5074.0011-5.0148a3.7613,3.7613,0,0,1,.0277-.5849,1.0958,1.0958,0,0,1,2.16-.0029,4.3529,4.3529,0,0,1,.0321.6914q.0027,4.0812.0012,8.1625c0,.1777-.0045.3564.0115.533a.5613.5613,0,0,0,.62.5866.5483.5483,0,0,0,.5454-.5512.5555.5555,0,0,0-.0032-.0562c.0077-.9068.0046-1.8138.0083-2.7207a4.4716,4.4716,0,0,1,.0213-.5855,1.0818,1.0818,0,0,1,1.1287-.9851,1.0542,1.0542,0,0,1,1.0637,1.0446v.003c.0325.9414.0147,1.8845.0186,2.827.0006.1422-.0065.2852.0059.4265.0325.3712.2288.6123.6114.5977a.5528.5528,0,0,0,.5541-.5517c0-.0165-.0007-.033-.0021-.0495.0148-.5865.0044-1.1735.011-1.76a3.083,3.083,0,0,1,.0413-.5828,1.075,1.075,0,0,1,1.1628-.8784,1.0526,1.0526,0,0,1,1.0033.9955c.0356.6026.0143,1.2086.02,1.813a3.2458,3.2458,0,0,0,.0166.4789c.0544.3429.2745.6041.6086.5185a.87.87,0,0,0,.5272-.54,6.6982,6.6982,0,0,0,.0393-1.1675,1.1208,1.1208,0,0,1,1.1228-1.1186,1.0873,1.0873,0,0,1,1.09,1.0839c0,.0194,0,.0388-.0014.0582.0094,2.81.0538,5.6206-.0169,8.4286a5.6506,5.6506,0,0,1-5.0527,5.455A7.554,7.554,0,0,1,17.8938,31.72,7.4667,7.4667,0,0,1,16.76,29.99c-1.2178-2.5879-2.3886-5.1979-3.573-7.8014-.3426-.753-.21-1.3479.3589-1.6811.5864-.3433,1.1837-.15,1.6745.5474.5012.7124.9868,1.4362,1.5055,2.1355.1083.1461.3316.207.5019.3071.1-.187.2843-.3729.2866-.561.022-1.7959.0131-3.5921.0131-5.3882Z"/></svg>