<svg xmlns="http://www.w3.org/2000/svg" xmlns:xlink="http://www.w3.org/1999/xlink" width="43" height="42" viewBox="0 0 43 42"><defs><style>.a{fill:#fff;}.b{fill:url(#a);}.c,.d{fill:none;}.c{stroke:#e5f5ff;}.d{stroke:#bacdd6;}.e{fill:#2e3192;}.f{fill:#f7931e;}</style><radialGradient id="a" cx="-85.4286" cy="80.1429" r="1" gradientTransform="matrix(0, 21, 21, 0, -1661.5, 1815)" gradientUnits="userSpaceOnUse"><stop offset="0" stop-color="#fdfeff"/><stop offset="1" stop-color="#e3edf7"/></radialGradient></defs><circle class="a" cx="21.5" cy="21" r="20.5"/><circle class="b" cx="21.5" cy="21" r="20.5"/><circle class="c" cx="21.5" cy="21" r="20.5"/><circle class="d" cx="21.5" cy="21" r="20.5"/><path class="e" d="M29.1233,9.771c.085.0732.1955.0481.2929.0723a2.5919,2.5919,0,0,1,2.0095,2.66q.006,3.7727.0012,7.5454,0,4.7049.0022,9.41a2.6771,2.6771,0,0,1-.8446,2.0856,2.5609,2.5609,0,0,1-1.6234.68c-.0729.0047-.1461.0048-.2192.0049q-5.9552,0-11.91-.0006A2.5869,2.5869,0,0,1,14.23,30.2314a2.6407,2.6407,0,0,1-.0674-.63c.0016-1.3453.004-2.6906-.0031-4.0359-.0009-.1774.04-.2426.2281-.2366.4236.0134.8482.0127,1.2719,0,.18-.0053.2158.0608.215.2265-.0061,1.3088-.0037,2.6175-.0033,3.9263a.9124.9124,0,0,0,1.0369,1.0365q5.8893.0009,11.7787,0a.8986.8986,0,0,0,1.02-1.0252q.0006-8.4886,0-16.9771a.9031.9031,0,0,0-1.0377-1.0293q-5.8785-.0006-11.7568,0A.9128.9128,0,0,0,15.8713,12.52c-.0005,1.3087-.004,2.6175.0041,3.9262.0012.1859-.0538.2355-.2339.23-.431-.0123-.8627-.0088-1.294-.0015-.1426.0025-.1874-.0433-.1869-.1871.0053-1.4038-.0056-2.8077.0079-4.2113a2.5635,2.5635,0,0,1,2.1354-2.4574c.05-.0081.1039-.001.14-.0478Z"/><path class="f" d="M14.9111,23.5867q-1.1844,0-2.3689,0a.8645.8645,0,0,1-.97-.9533q-.0033-1.6341,0-3.2682a.8614.8614,0,0,1,.9545-.9462q2.358-.0017,4.7158,0c.3764,0,.3748,0,.3768-.3876q.0051-.9978.0148-1.9956a.74.74,0,0,1,.1533-.47.5413.5413,0,0,1,.7937-.0735q3.0917,2.6779,6.1858,5.3531c.16.1375.1366.197-.0069.3208q-3.0884,2.6651-6.1682,5.34a.568.568,0,0,1-.8651-.2062,1.463,1.463,0,0,1-.1067-.6645c-.0028-.6142-.0062-1.2284.0023-1.8424.0022-.164-.047-.2106-.2113-.209C16.5781,23.5911,15.7446,23.5868,14.9111,23.5867Z"/></svg>