<svg id="Layer_1" data-name="Layer 1" xmlns="http://www.w3.org/2000/svg" width="28" height="28" viewBox="0 0 28 28"><defs><style>.cls-1{fill:#2e3192;}.cls-1,.cls-2{fill-rule:evenodd;}.cls-2{fill:#dd437b;}</style></defs><path class="cls-1" d="M14.42,6.44a.85.85,0,0,1,.84-.84h3.36a.84.84,0,0,1,0,1.68h-.84V20.72H16.1V7.28h-.84A.85.85,0,0,1,14.42,6.44Z"/><path class="cls-1" d="M15.26,20.72a.84.84,0,1,0,0,1.68h3.36a.84.84,0,0,0,0-1.68Z"/><path class="cls-2" d="M18.62,9H23.3a1.2,1.2,0,0,1,1.2,1.2v7.68A1.2,1.2,0,0,1,23.3,19H18.62Z"/><polygon class="cls-2" points="9.34 13.25 9.96 14.64 8.73 14.64 9.34 13.25"/><path class="cls-2" d="M4.7,9a1.2,1.2,0,0,0-1.2,1.2v7.68A1.2,1.2,0,0,0,4.7,19H15.26V9Zm6.81,7.77a.58.58,0,0,1-.77-.3l-.34-.78H8.28l-.3.69a.59.59,0,1,1-1.07-.48L8.8,11.58a.59.59,0,0,1,.78-.3.61.61,0,0,1,.29.28l.06.11L11.81,16A.58.58,0,0,1,11.51,16.73Z"/><polygon class="cls-2" points="9.96 14.64 8.73 14.64 9.34 13.25 9.96 14.64"/><polygon class="cls-2" points="9.96 14.64 8.73 14.64 9.34 13.25 9.96 14.64"/></svg>