<svg xmlns="http://www.w3.org/2000/svg" width="28" height="28" viewBox="0 0 28 28"><defs><style>.cls-1{fill:#152e4d;}.cls-2{fill:#fff;fill-rule:evenodd;}</style></defs><g id="Layer_3" data-name="Layer 3"><rect class="cls-1" width="28" height="28" rx="2"/></g><g id="Layer_1" data-name="Layer 1"><path id="Input" class="cls-2" d="M14.42,6.44a.85.85,0,0,1,.84-.84h3.36a.84.84,0,0,1,0,1.68h-.84V20.72H16.1V7.28h-.84A.85.85,0,0,1,14.42,6.44Zm.84,14.28a.84.84,0,1,0,0,1.68h3.36a.84.84,0,0,0,0-1.68ZM18.62,9H23.3a1.2,1.2,0,0,1,1.2,1.2v7.68A1.2,1.2,0,0,1,23.3,19H18.62ZM3.5,10.16A1.2,1.2,0,0,1,4.7,9H15.26V19H4.7a1.2,1.2,0,0,1-1.2-1.2Zm3.71,6.48a.59.59,0,0,1-.3-.78L8.8,11.58a.59.59,0,0,1,.78-.3.61.61,0,0,1,.29.28l.06.11L11.81,16a.58.58,0,0,1-1.07.47l-.34-.78H8.28l-.3.69A.59.59,0,0,1,7.21,16.64Zm1.52-2H10l-.62-1.39Z"/></g></svg>