<svg xmlns="http://www.w3.org/2000/svg" xmlns:xlink="http://www.w3.org/1999/xlink" width="43" height="42" viewBox="0 0 43 42"><defs><style>.a{fill:#fff;}.b{fill:url(#a);}.c,.d{fill:none;}.c{stroke:#e5f5ff;}.d{stroke:#bacdd6;}.e{fill:#e6e6e6;}.f{fill:#009245;}.g{fill:#0a66fc;}.h{fill:#9e005d;}</style><radialGradient id="a" cx="-85.4286" cy="80.1429" r="1" gradientTransform="matrix(0, 21, 21, 0, -1661.5, 1815)" gradientUnits="userSpaceOnUse"><stop offset="0" stop-color="#fdfeff"/><stop offset="1" stop-color="#e3edf7"/></radialGradient></defs><circle class="a" cx="21.5" cy="21" r="20.5"/><circle class="b" cx="21.5" cy="21" r="20.5"/><circle class="c" cx="21.5" cy="21" r="20.5"/><circle class="d" cx="21.5" cy="21" r="20.5"/><rect class="e" x="11.9517" y="14.572" width="19.8871" height="12.7845"/><path class="f" d="M32.98,15.2076c.1226-1.1237-.31-1.65-1.61-1.6371-6.6542.0666-13.31.0471-19.9643.0131-.9784-.0049-1.4222.18-1.4053,1.2963q.0919,6.099.0015,12.2c-.0144,1.0588.3213,1.353,1.3606,1.3467q10.1668-.0611,20.3341.003c1.1249.0081,1.3121-.4386,1.2884-1.4107-.0555-2.2786-.025-4.5595-.0117-6.8393C32.9765,19.64,32.9356,15.6159,32.98,15.2076Zm-3.4744.2292c.7255.04,1.4211-.0239,1.2235,1.0415.14.8244-.0958,1.2342-1.0522,1.2206-.8592-.0122-1.2139-.2346-1.1707-1.1436C28.54,15.8379,28.6261,15.3888,29.5057,15.4368Zm-3.73.01c.9618-.0783.856.5534.9136,1.1871.0925,1.0157-.4876,1.0232-1.2432,1.057-1.046.0469-1.05-.567-.9689-1.2172C24.3147,15.2676,25.124,15.5,25.7755,15.447Zm-4.2962-.0165c.8321.0351,1.3462.1935,1.0886,1.0741.2072,1.0746-.3522,1.1755-1.1522,1.1881-.8147.0128-1.0477-.2821-1.0544-1.07C20.3542,15.7865,20.5435,15.3909,21.4793,15.4305Zm.2246,3.7179c.9619-.0783.856.5534.9137,1.1871.0924,1.0157-.4876,1.0233-1.2432,1.0571-1.0461.0469-1.05-.567-.969-1.2172C20.2431,18.969,21.0524,19.2016,21.7039,19.1484Zm-4.3768-3.7111c.7393.042,1.451-.0168,1.1739,1.0055.1733.9433-.1705,1.2516-1.0748,1.2564-.9076.0048-1.1558-.3186-1.1361-1.18C16.3076,15.7566,16.4858,15.3893,17.3271,15.4373Zm-3.9618-.012c.9192-.0005,1.232.3375,1.0771,1.1968.1961,1.0278-.4376,1.0394-1.1975,1.0687-.8526.0329-1.003-.3477-1.026-1.0962C12.1921,15.7193,12.4724,15.4258,13.3653,15.4253Zm-.0868,9.664c-1.0157.0925-1.0187-.4886-1.0581-1.243-.0556-1.0623.5794-1.036,1.2969-.98,1.1277-.1516.8951.6576.9483,1.3091C14.5439,25.1374,13.9122,25.0315,13.2785,25.0893Zm.0762-3.6887c-.9077.0049-1.1557-.3187-1.1361-1.18.0173-.7627.1967-1.1126,1.0367-1.0866.7745.0241,1.3828.0657,1.1867,1.0794C14.6027,21.0875,14.259,21.3958,13.3547,21.4006Zm3.9812-2.2672c.7877.0184,1.371.09,1.1776,1.09.1657.8874-.2069,1.1677-1.0972,1.1774-.9216.01-1.1388-.3421-1.1265-1.19C16.301,19.4341,16.5089,19.1141,17.3359,19.1334Zm8.3013,5.9542c-1.4144-.0478-2.8317-.0133-4.2477-.0133-1.3545,0-2.71-.0372-4.063.0133-.8307.031-1.0522-.3189-1.03-1.0878.02-.6874.0493-1.1707.96-1.1574q4.2474.0622,8.4959,0c.9383-.0137.9045.5166.9362,1.1792C26.7267,24.8184,26.4433,25.1148,25.6372,25.0876Zm1.02-4.8742c.1607.8741-.1831,1.1824-1.0874,1.1872-.9076.0049-1.1557-.3187-1.136-1.18.0173-.7627.1966-1.1126,1.0367-1.0866C26.2445,19.1581,26.8529,19.2,26.6568,20.2134Zm3.0112,4.8884c-.8711-.0078-1.1994-.2557-1.1622-1.1527.03-.7277.1375-1.1539,1.0079-1.1106.7362.0367,1.4123-.0027,1.2152,1.0506C30.8741,24.7253,30.6112,25.11,29.668,25.1018Zm-.0843-3.706c-.7766-.0114-1.1154-.2179-1.0725-1.0465.0388-.7487-.001-1.4478,1.0144-1.164.9578-.1789,1.2381.1937,1.2478,1.084C30.7835,21.1909,30.4314,21.4082,29.5837,21.3958Z"/><circle class="a" cx="21.5" cy="21" r="20.5"/><circle class="b" cx="21.5" cy="21" r="20.5"/><circle class="c" cx="21.5" cy="21" r="20.5"/><circle class="d" cx="21.5" cy="21" r="20.5"/><path class="g" d="M26.6521,25.9179v1.0893H13.7412V18.0734H18.85s.304-1.047.4644-1.9927H12.7447a.991.991,0,0,0-.9879.9963V28.0036A.9911.9911,0,0,0,12.7447,29H27.6484a.9983.9983,0,0,0,.9964-.9964V24.28Z"/><path class="h" d="M24.1008,25.59V22.7393c-3.5208,0-4.6557.5606-6.4879,3.5755,0,0,0-6.4058,6.4879-6.4058V17.3863l5.3325,4.0267Z"/><path class="h" d="M27.0284,18.2217V15.3708c-3.5208,0-4.6557.5606-6.4879,3.5755,0,0,0-6.4058,6.4879-6.4058V10.0179l5.3325,4.0266Z"/></svg>