<svg id="Layer_1" data-name="Layer 1" xmlns="http://www.w3.org/2000/svg" width="28" height="28" viewBox="0 0 28 28"><defs><style>.cls-1{fill:#5267bd;}.cls-2{fill:#f7931e;}.cls-3{fill:#fbb03b;}</style></defs><g id="multi_extract" data-name="multi extract"><path class="cls-1" d="M18.68,20.53v1.11H5.52v-9.1h5.21s.31-1.07.47-2H4.51a1,1,0,0,0-1,1V22.66a1,1,0,0,0,1,1H19.7a1,1,0,0,0,1-1v-3.8Z"/><path class="cls-2" d="M16.08,20.2V17.29c-3.59,0-4.74.57-6.61,3.65,0,0,0-6.53,6.61-6.53V11.84l5.44,4.1Z"/><path class="cls-3" d="M19.07,12.69V9.78c-3.59,0-4.75.57-6.62,3.65,0,0,0-6.53,6.62-6.53V4.33l5.43,4.1Z"/></g></svg>