<svg width="203" height="138" viewBox="0 0 203 138" fill="none" xmlns="http://www.w3.org/2000/svg">
<path d="M174.376 23.7522C173.109 23.7522 172 22.6434 172 21.3761C172 20.1089 173.109 19 174.376 19C175.643 19 176.752 20.1089 176.752 21.3761C176.752 22.8018 175.643 23.7522 174.376 23.7522Z" fill="#EAA8FF"/>
<path d="M194.518 94.1645H197.008V91.518C197.008 91.051 197.475 90.584 197.942 90.584C198.409 90.584 198.876 91.051 198.876 91.518V94.1645H201.523C201.99 94.1645 202.457 94.6316 202.457 95.0986C202.457 95.5656 201.99 96.0327 201.523 96.0327H198.876V98.6792C198.876 99.1462 198.409 99.6132 197.942 99.6132C197.475 99.6132 197.008 99.1462 197.008 98.6792V96.0327H194.362C193.895 96.0327 193.428 95.5656 193.428 95.0986C193.583 94.6316 194.05 94.1645 194.518 94.1645Z" fill="#FFB5D7"/>
<path d="M77.0823 5.55839L78.3338 4.37897L77.0806 3.04927C76.8595 2.81462 76.873 2.35882 77.1077 2.13768C77.3423 1.91654 77.7981 1.93006 78.0192 2.16472L79.2724 3.49442L80.6021 2.24129C80.8367 2.02015 81.2925 2.03366 81.5137 2.26831C81.7348 2.50297 81.7213 2.95876 81.4866 3.1799L80.1569 4.43303L81.4101 5.76273C81.6312 5.99739 81.6177 6.45317 81.383 6.67431C81.1484 6.89545 80.6926 6.88194 80.4714 6.64729L79.2183 5.31759L77.8886 6.57071C77.654 6.79185 77.1982 6.77834 76.977 6.54369C76.8341 6.23532 76.8476 5.77953 77.0823 5.55839Z" fill="#B2ABFF"/>
<path d="M3.56474 108.128C1.66385 108.128 0.000566483 106.465 0.000566483 104.564C0.000566483 102.663 1.66385 101 3.56474 101C5.46563 101 7.12891 102.663 7.12891 104.564C7.12891 106.703 5.46563 108.128 3.56474 108.128Z" fill="#FFDE92"/>
<path opacity="0.1" fill-rule="evenodd" clip-rule="evenodd" d="M159 106.038C159.503 105.74 159.961 105.382 160.363 104.976C161.669 103.568 162.54 101.632 162.366 99.52C162.256 97.1911 160.902 95.2116 159 94.0659V106.038ZM159 78.048V63H173.162C177.516 63 181.086 66.432 180.998 70.656C180.998 72.68 180.128 74.528 178.822 75.848C177.516 77.256 175.6 78.048 173.598 78.048H159ZM21.4009 78.048H41.7871L47.8286 93.008H21.7491C17.5698 93.008 14 89.576 14 85.44C14 83.416 14.8707 81.568 16.1767 80.248C17.4828 78.928 19.3983 78.048 21.4009 78.048Z" fill="#B4D4FF"/>
<path opacity="0.3" d="M186 108C190.418 108 194 104.418 194 100C194 95.5817 190.418 92 186 92C181.582 92 178 95.5817 178 100C178 104.418 181.582 108 186 108Z" fill="#B4D4FF"/>
<path opacity="0.1" fill-rule="evenodd" clip-rule="evenodd" d="M74.1676 43.97C77.3903 41.0337 78.9659 37.0117 78.8941 33H96.8364C96.6858 33.0196 96.5323 33.0297 96.3764 33.0297H89.3071C87.355 33.0297 85.7725 34.6122 85.7725 36.5643V51.6523L85.2518 58.3657C84.916 57.3887 83.9588 56.6863 82.8549 56.723C82.6239 56.7307 82.3808 56.7381 82.1266 56.7449C81.3817 55.0964 79.4844 54.2575 77.7392 54.8685L74.2235 56.0992C73.3214 56.415 72.3298 56.352 71.4749 55.9245L63.5875 51.9808C62.2619 51.3181 60.6609 52.0289 60.2635 53.4567L60.09 54.0804C59.9929 54.2436 59.9139 54.4213 59.8565 54.6128L57.7389 61.6715C57.5812 62.1968 57.2453 62.6508 56.7889 62.955L56.7215 63H32.5335C28.4164 63 25 59.6764 25 55.5656C25 53.4665 25.876 51.6297 27.19 50.2303C28.504 48.9184 30.4311 48.0437 32.4459 48.0437H45.0273C44.0969 49.0711 44.1268 50.5767 45.0549 51.5048C46.0139 52.4638 47.5895 52.4638 48.5485 51.5048L52.0809 48.0437H68.7119C67.6406 48.0437 67.1268 47.8515 66.9529 47.567C69.5781 47.0715 72.0943 45.8725 74.1676 43.97ZM160 48.0437H183.554C185.569 48.0437 187.496 47.2566 188.81 45.8571C190.124 44.4577 191 42.621 191 40.5219C191 36.3236 187.671 33 183.554 33H147.758C147.908 33.0196 148.062 33.0297 148.218 33.0297H156.465C158.418 33.0297 160 34.6122 160 36.5643V48.0437Z" fill="#B4D4FF"/>
<path opacity="0.6" d="M64.8869 135.771L41.7798 78.5538C41.3344 77.451 41.7807 76.1892 42.8204 75.6115L49.9079 71.6741C50.8913 71.1277 51.3461 69.9584 50.9904 68.8911C50.657 67.891 51.0343 66.7915 51.9114 66.2067L56.7889 62.955C57.2453 62.6508 57.5812 62.1968 57.7389 61.6715L59.8565 54.6128C60.3778 52.875 62.6723 52.2739 64.1652 53.3049C66.2959 54.7764 69.3499 56.3673 72.8118 56.5932C76.7171 56.8481 80.4455 56.8033 82.8549 56.723C84.294 56.6751 85.4839 57.8835 85.3725 59.3191L80.1797 126.191C80.0845 127.416 80.9474 128.509 82.1617 128.701L88.1286 129.643L67.8865 137.1C66.6919 137.54 65.3637 136.952 64.8869 135.771Z" fill="#C0DDFF"/>
<path d="M56 85.3164L82 72.7039" stroke="white" stroke-width="4.36" stroke-linecap="round"/>
<path d="M59.7129 95.7422L80.9995 85.7039" stroke="white" stroke-width="4.36" stroke-linecap="round"/>
<path d="M64.5 105.704L80 97.7041" stroke="white" stroke-width="4.36" stroke-linecap="round"/>
<path d="M68.0986 115.979L79 110.704" stroke="white" stroke-width="4.36" stroke-linecap="round"/>
<path d="M72.8125 125.404L78.0005 122.704" stroke="white" stroke-width="4.36" stroke-linecap="round"/>
<path opacity="0.6" d="M80.0362 125.606L86.7777 38.6851L85.827 121.342C85.7968 123.966 87.9155 126.109 90.5395 126.109H152.93L152.729 129.691C152.582 132.327 150.298 134.327 147.665 134.126L83.1155 129.199C81.2726 129.058 79.8933 127.449 80.0362 125.606Z" fill="#ABCDFF"/>
<path opacity="0.6" d="M96.3764 33.0297H89.3071C87.355 33.0297 85.7725 34.6122 85.7725 36.5643V122.574C85.7725 124.526 87.355 126.109 89.3071 126.109H156.465C158.418 126.109 160 124.526 160 122.574V36.5643C160 34.6122 158.418 33.0297 156.465 33.0297H148.218C146.266 33.0297 144.683 31.4471 144.683 29.495V27.1386C144.683 25.1864 143.101 23.6039 141.149 23.6039H136.519C135.703 23.6039 134.912 23.3216 134.281 22.805L124.645 14.921C123.294 13.8159 121.339 13.862 120.042 15.0294L111.523 22.6966C110.874 23.2807 110.032 23.6039 109.159 23.6039H103.446C101.494 23.6039 99.911 25.1864 99.911 27.1386V29.495C99.911 31.4471 98.3285 33.0297 96.3764 33.0297Z" fill="#C0DDFF"/>
<path d="M115 61.7041H144" stroke="white" stroke-width="5.36" stroke-linecap="round"/>
<path d="M115.229 82.5146H143.506" stroke="white" stroke-width="5.36" stroke-linecap="round"/>
<path d="M115.229 103.723H136.436" stroke="white" stroke-width="5.36" stroke-linecap="round"/>
<circle cx="103.445" cy="61.3066" r="4.71286" fill="white"/>
<path opacity="0.6" d="M99.9111 35.3861V34.2079V27.1386C99.9111 25.1865 101.494 23.6039 103.446 23.6039H109.159C110.032 23.6039 110.874 23.2807 111.523 22.6966L120.042 15.0294C121.339 13.862 123.294 13.8159 124.645 14.921L134.281 22.805C134.913 23.3216 135.703 23.6039 136.519 23.6039H141.149C143.101 23.6039 144.683 25.1864 144.683 27.1386V34.2079V35.3861C144.683 37.3382 143.101 38.9207 141.149 38.9207H103.446C101.494 38.9207 99.9111 37.3382 99.9111 35.3861Z" fill="#ABCDFF"/>
<path opacity="0.6" d="M52.3811 71.2799L51.1097 68.8771C51.0579 68.7793 51.0143 68.6773 50.9793 68.5723C50.6837 67.6854 51.0377 66.7117 51.8339 66.2217L56.5386 63.3265C57.2977 62.8594 57.8523 62.1226 58.0913 61.2639L60.264 53.4567C60.6613 52.0289 62.2624 51.3181 63.588 51.9808L71.4754 55.9245C72.3303 56.352 73.3219 56.415 74.224 56.0992L77.7397 54.8685C79.6018 54.2166 81.637 55.2152 82.2608 57.0868L82.3642 57.3969C82.9298 59.0938 82.1387 60.9458 80.5216 61.7102L57.016 72.8224C55.3071 73.6302 53.2651 72.9507 52.3811 71.2799Z" fill="#ABCDFF"/>
<circle cx="122.296" cy="31.8515" r="3.53465" fill="white"/>
<circle cx="65.7431" cy="61.3066" r="2.35643" fill="white"/>
<circle cx="103.445" cy="82.5146" r="4.71286" fill="white"/>
<circle cx="103.445" cy="103.723" r="4.71286" fill="white"/>
<path d="M45.7323 53.2592C46.7203 54.2472 48.3435 54.2472 49.3316 53.2592L56.3185 46.4134C57.3066 45.4253 57.3066 43.8021 56.3185 42.7435C55.3305 41.7554 53.7072 41.7554 52.7192 42.7435L45.8028 49.5893C44.7442 50.6479 44.7442 52.2711 45.7323 53.2592Z" fill="#8FBCFF"/>
<path d="M74.8355 22.4286C80.905 28.4981 80.7639 38.3786 74.4121 44.1658C68.4132 49.6706 58.815 49.4589 53.2395 43.5306C47.5935 37.6023 47.5935 28.1452 53.4513 22.358C59.4501 16.5709 68.9072 16.5003 74.8355 22.4286ZM55.8508 41.4133C60.5088 46.0713 68.272 45.9301 72.7889 40.9899C76.8116 36.6142 76.8116 29.6978 72.7889 25.2516C68.272 20.3113 60.5088 20.1702 55.8508 24.8282C51.2634 29.4155 51.2634 36.8259 55.8508 41.4133Z" fill="#8FBCFF"/>
<path d="M64.2504 41.0967C63.6691 41.0967 63.1605 40.5881 63.1605 40.0069C63.1605 39.4256 63.6691 38.8443 64.3231 38.8443C64.9043 38.8443 65.4856 39.3529 65.4856 39.9342C65.4129 40.6608 64.9043 41.0967 64.2504 41.0967ZM64.3231 37.6091C63.7418 37.6091 63.2332 37.1005 63.1605 36.5192C63.1605 36.4466 63.1605 36.4466 63.1605 36.3739V34.1215C63.1605 32.959 63.8871 31.9417 64.977 31.5058C65.8489 31.2151 66.4302 30.3432 66.3575 29.4713C66.2848 28.4541 65.4856 27.5822 64.3957 27.5096H64.2504C63.3785 27.5096 62.5793 28.0908 62.2886 29.0354C62.1433 29.544 61.7073 29.762 61.1987 29.762C61.0534 29.762 60.9081 29.762 60.7628 29.6893C60.2542 29.4713 59.8909 28.9627 60.0362 28.3088C60.5448 26.4923 62.2886 25.1118 64.2504 25.1118H64.3957C65.4856 25.1118 66.5755 25.4751 67.3021 26.2744C68.174 27.2189 68.6826 28.3815 68.6099 29.6893C68.5373 31.3605 67.3747 32.959 65.8489 33.5402H65.7762H65.7036C65.5583 33.6129 65.4129 33.7582 65.4856 33.9762V36.1559C65.4856 36.5192 65.4285 36.8561 65.3088 37.0954C65.0232 37.6667 64.5367 37.6091 64.3231 37.6091Z" fill="#BED9FF"/>
</svg>
