<svg xmlns="http://www.w3.org/2000/svg" xmlns:xlink="http://www.w3.org/1999/xlink" width="43" height="42" viewBox="0 0 43 42"><defs><style>.a{fill:#fff;}.b{fill:url(#a);}.c,.d{fill:none;}.c{stroke:#e5f5ff;}.d{stroke:#bacdd6;}.e{fill:#0a66fc;}.f{fill:#39b54a;}</style><radialGradient id="a" cx="-85.4286" cy="80.1429" r="1" gradientTransform="matrix(0, 21, 21, 0, -1661.5, 1815)" gradientUnits="userSpaceOnUse"><stop offset="0" stop-color="#fdfeff"/><stop offset="1" stop-color="#e3edf7"/></radialGradient></defs><circle class="a" cx="21.5" cy="21" r="20.5"/><circle class="b" cx="21.5" cy="21" r="20.5"/><circle class="c" cx="21.5" cy="21" r="20.5"/><circle class="d" cx="21.5" cy="21" r="20.5"/><path class="e" d="M28.385,26.525v1.3h-15.3V17.235h3.06a14.1023,14.1023,0,0,1,2.55-2.35h-6.78a1.1737,1.1737,0,0,0-1.18,1.17v12.95a1.1737,1.1737,0,0,0,1.18,1.17h17.64a1.1737,1.1737,0,0,0,1.18-1.17v-4.41Z"/><path class="f" d="M26.455,23.825v-4.18c-5.15,0-6.8.83-9.48,5.24,0,0,0-9.38,9.48-9.38v-3.68l7.81,5.88Z"/></svg>