<svg xmlns="http://www.w3.org/2000/svg" width="28" height="28" viewBox="0 0 28 28"><defs><style>.cls-1{fill:#152e4d;}.cls-2{fill:#fff;}</style></defs><g id="Layer_3" data-name="Layer 3"><rect class="cls-1" width="28" height="28" rx="2"/></g><g id="Layer_1" data-name="Layer 1"><g id="single_extract" data-name="single extract"><path class="cls-2" d="M20,20.39H5.7V10.47H8.57A13,13,0,0,1,11,8.27H4.6a1.1,1.1,0,0,0-1.1,1.1V21.5a1.1,1.1,0,0,0,1.1,1.1H21.14a1.1,1.1,0,0,0,1.1-1.1V17.37L20,19.18Zm-1.81-7.66v3.92l6.27-5.74L18.23,5.4V8.85c-8.89,0-8.89,8.79-8.89,8.79C11.86,13.51,13.41,12.73,18.23,12.73Z"/></g></g></svg>