<svg xmlns="http://www.w3.org/2000/svg" width="28" height="28" viewBox="0 0 28 28"><defs><style>.cls-1{fill:#152e4d;}.cls-2{fill:#fff;}</style></defs><g id="Layer_3" data-name="Layer 3"><rect class="cls-1" width="28" height="28" rx="2"/></g><g id="Layer_1" data-name="Layer 1"><g id="table_extractor" data-name="table extractor"><path class="cls-2" d="M20.33,13.53v1.79h-4.2V13.06h3.33V11c-3.05,0-4.52.37-6,2.08h1.56v2.26H10.86V13.06h1.56a7.57,7.57,0,0,1,1.41-2.89H5a.53.53,0,0,0-.54.53V22.54a.54.54,0,0,0,.54.54H20.86a.54.54,0,0,0,.54-.54V12.69ZM9.78,22H5.58V19.74h4.2Zm0-3.34H5.58V16.4h4.2Zm0-3.34H5.58V13.06h4.2ZM15.05,22H10.86V19.74h4.19Zm0-3.34H10.86V16.4h4.19ZM20.33,22h-4.2V19.74h4.2Zm0-3.34h-4.2V16.4h4.2Z"/><path class="cls-2" d="M20.26,6.53l3.93,3-3.28,2.57-.65.51V10.18h-.8a12.33,12.33,0,0,0-6.08,2,4.59,4.59,0,0,1,1-1.44,6.73,6.73,0,0,1,5.06-2.16h.8v-2m-.8-1.61V7.77a7.57,7.57,0,0,0-5.63,2.4c-1.6,1.6-1.41,2.89-1.41,2.89h1.07a12,12,0,0,1,6-2.08v3.23l.87-.68,1.07-.84,4.1-3.21-6-4.56Z"/></g></g></svg>