<svg xmlns="http://www.w3.org/2000/svg" xmlns:xlink="http://www.w3.org/1999/xlink" width="43" height="42" viewBox="0 0 43 42"><defs><style>.a{fill:#fff;}.b{fill:url(#a);}.c,.d{fill:none;}.c{stroke:#e5f5ff;}.d{stroke:#bacdd6;}.e{fill:#333;}.f{fill:#0071bc;}</style><radialGradient id="a" cx="-85.4286" cy="80.1429" r="1" gradientTransform="matrix(0, 21, 21, 0, -1661.5, 1815)" gradientUnits="userSpaceOnUse"><stop offset="0" stop-color="#fdfeff"/><stop offset="1" stop-color="#e3edf7"/></radialGradient></defs><circle class="a" cx="21.5" cy="21" r="20.5"/><circle class="b" cx="21.5" cy="21" r="20.5"/><circle class="c" cx="21.5" cy="21" r="20.5"/><circle class="d" cx="21.5" cy="21" r="20.5"/><path class="e" d="M18.851,31.3669c-2.0617,0-4.1238-.0223-6.185.01a1.6517,1.6517,0,0,1-1.7325-1.7355c.0256-1.2426.02-2.4865-.0068-3.73-.0177-.8088.0052-1.6187.0185-2.4279a.5789.5789,0,0,1,.669-.6236.5983.5983,0,0,1,.5192.6574c.0069.5007.0145,1.0021-.0035,1.5023-.0083.229.0723.2776.2841.2769q2.78-.01,5.5591.0016c.2441.0013.3132-.07.3046-.31-.0179-.5-.0086-1.0015-.0042-1.5023a.5743.5743,0,0,1,.5921-.6287.5876.5876,0,0,1,.5952.6322c.0047.5258.0078,1.0518-.0028,1.5775-.0035.1759.0537.2283.2262.2279q2.8422-.0065,5.6844.0008c.17,0,.2325-.0474.2287-.226-.0108-.5173-.0056-1.0349-.0031-1.5524a.5935.5935,0,0,1,.5925-.66.5788.5788,0,0,1,.5953.651q.0024,3.13-.0008,6.26a1.5457,1.5457,0,0,1-1.5948,1.5974c-2.1118.005-4.2236.0016-6.3354.0016Zm-3.6421-4.8775c-.9424,0-1.8848.0056-2.8271-.0045-.2-.0021-.2517.06-.25.2546.009.9839.0026,1.968.0049,2.9521.0008.3578.1273.4851.4784.4853,1.8013.0012,3.6027-.002,5.404.0046.1927.0007.2592-.0479.2574-.25q-.0143-1.5885-.0006-3.1773c.0018-.2049-.0541-.2722-.2651-.27C17.077,26.4948,16.1429,26.4888,15.2089,26.4894Zm7.3375,0c-.9425,0-1.885.0035-2.8275-.0031-.18-.0012-.2644.0276-.2622.241.0113,1.0759.0087,2.1519.0016,3.2278-.0012.1735.0474.2269.2241.2263,1.81-.0058,3.62-.0027,5.43-.0039.35,0,.48-.1332.4808-.4853.0013-.9842-.0045-1.9685.0047-2.9526.0018-.1939-.0489-.2564-.2489-.2542C24.4148,26.4949,23.4806,26.4893,22.5464,26.4889Z"/><path class="f" d="M26.198,21.5957q-3.5934,0-7.187-.0005c-.5392,0-.7381-.1982-.7384-.7389q-.0017-2.2537,0-4.5075c0-.6561.1767-.8351.826-.8352q5.7471-.0006,11.4941,0,1.3649,0,2.73,0c.5983,0,.79.1932.7907.7975q.0014,2.2537.0009,4.5075c0,.59-.19.7777-.7788.7777Q29.7666,21.596,26.198,21.5957Zm-.0091-1.1893c2.1528,0,4.3056-.0035,6.4584.0052.2234.0009.2795-.0618.2772-.28-.0113-1.0345-.0135-2.0694.0009-3.1039.0035-.2488-.0554-.3293-.3142-.3243-.8508.0164-1.7021.0066-2.5533.0065q-5.1443,0-10.2884-.0062c-.2568-.0007-.3175.0719-.3139.3216q.0222,1.5391.0006,3.0789c-.003.2359.0514.31.2992.3085C21.9,20.4024,24.0444,20.4068,26.1889,20.4064Z"/><path class="e" d="M18.8692,10.6355c2.0449,0,4.09.03,6.1344-.0122a1.651,1.651,0,0,1,1.7843,1.8045c-.03.3983-.0021.8009-.0061,1.2015a.5994.5994,0,0,1-.5891.6413.6056.6056,0,0,1-.5976-.6391c-.0058-.4423,0-.8847-.0025-1.3271-.0015-.3508-.13-.4786-.4866-.4788-1.8029-.0013-3.6057.0017-5.4086-.0049-.1852-.0007-.2446.0477-.24.2372.0127.5088.0064,1.0182.0038,1.5273a.6161.6161,0,0,1-.6025.6855c-.3517-.0016-.5855-.2769-.5866-.6949-.0013-.5092-.0063-1.0184.0034-1.5274.0033-.1762-.0565-.227-.23-.2265-1.8195.005-3.6391.0019-5.4586.0037-.3187,0-.4483.1354-.451.4629-.0036.4424.0071.8849-.0034,1.3271a.5938.5938,0,0,1-.8033.6114.5571.5571,0,0,1-.3841-.5585c-.0019-.5091-.0146-1.0188.0051-1.5271a1.5318,1.5318,0,0,1,1.5585-1.5028c1.9614-.0064,3.9228-.0028,5.8843-.0032Q18.6313,10.6353,18.8692,10.6355Z"/><path class="f" d="M14.9015,19.1467H14.56q-1.4514,0-2.9028,0c-.4587,0-.7073-.2073-.71-.5847-.0022-.3823.262-.6033.7265-.6037q1.4764-.0014,2.9528,0h.2877a.5241.5241,0,0,0-.1765-.2377c-.382-.3847-.7688-.7647-1.1485-1.1517a.5928.5928,0,0,1-.0351-.87.602.602,0,0,1,.8718.0251q1.2129,1.1931,2.4168,2.3953a.6091.6091,0,0,1,0,.8734q-1.1946,1.1941-2.3951,2.3823a.602.602,0,0,1-.8885.0484.5928.5928,0,0,1,.0437-.8871c.4393-.4433.8836-.8816,1.3258-1.322Z"/></svg>