<svg id="Layer_1" data-name="Layer 1" xmlns="http://www.w3.org/2000/svg" width="28" height="28" viewBox="0 0 28 28"><defs><style>.cls-1{fill:#22b573;}.cls-1,.cls-3{fill-rule:evenodd;}.cls-2,.cls-3{fill:#2e3192;}</style></defs><g id="wait"><path class="cls-1" d="M14.65,5.44c-.25,0-.5,0-.74,0a.81.81,0,0,1-.86-.74.8.8,0,0,1,.73-.86q.44,0,.87,0A10.39,10.39,0,1,1,8.9,5.57a.78.78,0,0,1,1.1.22A.79.79,0,0,1,9.78,6.9a8.81,8.81,0,1,0,4.87-1.46Z"/><path class="cls-1" d="M5.85,6a.8.8,0,0,1,.8-.8H10.3V8.64a.8.8,0,0,1-1.6,0V6.81h-2A.8.8,0,0,1,5.85,6Z"/><path class="cls-2" d="M14.85,15.44l-2.36-2.36a.15.15,0,0,1,0-.11V11h4.8V13a.16.16,0,0,1-.05.11Z"/><path class="cls-2" d="M14.85,14.64,12.49,17a.15.15,0,0,0,0,.11V19h4.8V17.1A.16.16,0,0,0,17.2,17Z"/><path class="cls-3" d="M10.85,11a.6.6,0,0,1,.6-.6h6.8a.6.6,0,0,1,.6.6.6.6,0,0,1-.6.6h-6.8A.6.6,0,0,1,10.85,11Z"/><path class="cls-3" d="M10.85,19a.6.6,0,0,1,.6-.6h6.8a.6.6,0,0,1,.6.6.6.6,0,0,1-.6.6h-6.8A.6.6,0,0,1,10.85,19Z"/></g></svg>