<svg xmlns="http://www.w3.org/2000/svg" xmlns:xlink="http://www.w3.org/1999/xlink" width="43" height="42" viewBox="0 0 43 42"><defs><style>.a{fill:#fff;}.b{fill:url(#a);}.c,.d{fill:none;}.c{stroke:#e5f5ff;}.d{stroke:#bacdd6;}.e{fill:#f59321;}.f{fill:#4b32a9;}.g{fill:#799fe5;}.h{fill:#f7cf15;}</style><radialGradient id="a" cx="-85.4286" cy="80.1429" r="0.9832" gradientTransform="matrix(0, 21, 21, 0, -1661.5, 1815)" gradientUnits="userSpaceOnUse"><stop offset="0" stop-color="#fdfeff"/><stop offset="1" stop-color="#e3edf7"/></radialGradient></defs><circle class="a" cx="21.5" cy="21" r="20.1564"/><circle class="b" cx="21.5" cy="21" r="20.1564"/><circle class="c" cx="21.5" cy="21" r="20.1564"/><circle class="d" cx="21.5" cy="21" r="20.1564"/><path class="e" d="M20.1261,4.216A18.8194,18.8194,0,0,1,21.9013,5.91c.37.3514.7288.7161,1.0837,1.0835a.8548.8548,0,0,1,0,1.3442Q21.7838,9.56,20.5609,10.7615a.8415.8415,0,0,1-1.2235.15.8776.8776,0,0,1-.14-1.2266l1.2075-1.19a3.1845,3.1845,0,0,0-1.05.1035,12.6582,12.6582,0,0,0-8.0354,4.7525A12.4708,12.4708,0,0,0,8.72,19.2221q-.04.2858-.0793.5716a13.0131,13.0131,0,0,0,.1474,4.1184l.1947.722a12.4426,12.4426,0,0,0,2.5835,5.0016,13.1231,13.1231,0,0,0,6.5049,4.1894,1.2249,1.2249,0,0,0,.237.0226,2.4208,2.4208,0,0,0,.8769.19,11.4829,11.4829,0,0,0,3.8849.1173,4.0486,4.0486,0,0,0,.8962-.1525,11.9341,11.9341,0,0,0,4.79-2.0042,12.8577,12.8577,0,0,0,5.35-7.9681,2.3659,2.3659,0,0,0,.03-.2776l.0718-.3288a11.8447,11.8447,0,0,0,.178-1.8385c.0022-.6435.1556-.9061.6229-1.08.4874-.1816.7781.1158,1.06.4342l-.0021-.0032A8.13,8.13,0,0,1,35.9574,23.5a14.475,14.475,0,0,1-5.1333,9.1038A14.8281,14.8281,0,0,1,26.94,34.9524l-.2334.1012a.4392.4392,0,0,0-.3325.15l-.0109-.0045c-.8988.206-1.7736.512-2.6939.63a15.3837,15.3837,0,0,1-2.6891.16l-.2493-.0063a14.3784,14.3784,0,0,1-5.84-1.5514,14.6828,14.6828,0,0,1-7.1727-8.023c-.0426-.1112-.0965-.2181-.1453-.3269l.0039.0048a18.5479,18.5479,0,0,1-.7477-3.79l-.0257-.9737a15.5518,15.5518,0,0,1,.5994-4.098,14.8763,14.8763,0,0,1,9.452-9.8109l.358-.1216a16.4442,16.4442,0,0,1,2.7653-.5254c.22-.0149.2551-.0977.0954-.2677a7.6547,7.6547,0,0,1-1.0878-1.1826L18.9436,5c.0812-.3046.1408-.6234.4945-.7477A1.2806,1.2806,0,0,1,20.1261,4.216Z"/><path class="f" d="M29.0885,13.9822a.8815.8815,0,0,1-.8142,1.3323c-.1988-.0033-.398.0131-.5971.0205-.3176.0395-.1219.27-.1551.416a7.619,7.619,0,0,1-.9625,3.5361,6.5889,6.5889,0,0,1-1.48,1.79c-.2267.1855-.27.2876-.0175.5066a6.9473,6.9473,0,0,1,2.4364,5.4008c.0039.3216.09.4239.4053.3949a1.2343,1.2343,0,0,1,1.1488.3325l.14.2382c.0878.7637-.2491,1.139-1.0082,1.1389q-2.432-.0006-4.864.0077l-.4872.0009L18.7151,29.1l-.6491-.0033q-1.716-.0057-3.432-.0117a.8736.8736,0,0,1-.9235-.8139.8881.8881,0,0,1,.896-.895c.8-.0393.812-.0387.8546-.832A6.9266,6.9266,0,0,1,17.8753,21.57c.14-.1252.3074-.2131.06-.4232a6.917,6.917,0,0,1-2.496-5.3835c-.0066-.37-.1118-.5078-.4763-.456a1.7775,1.7775,0,0,1-.4431-.0065.8908.8908,0,0,1-.8127-.8534.9168.9168,0,0,1,.8045-.869c.1063-.0145.2145-.0152.3218-.0223l.8911.0007,4.4392-.002.2473-.0008,4.1178.0031.4879-.0051c1.0344.0055,2.0688.0168,3.1032.013a1.3871,1.3871,0,0,1,.7672.1884Zm-11.758,3.0625a4.6285,4.6285,0,0,0,.7348,1.7,6.0014,6.0014,0,0,0,2.1011,1.8888.81.81,0,0,1,.0694,1.379,2.9155,2.9155,0,0,1-.3047.196,5.25,5.25,0,0,0-2.7659,4.6826c-.01.5071-.0123.507.5092.4742l7.6125-.0112c.5863.0447.4892.0623.5051-.4637a4.0057,4.0057,0,0,0-.066-.8372,5.3792,5.3792,0,0,0-2.6452-3.8011,1.79,1.79,0,0,1-.5241-.3678c-.3821-.4742-.2368-1.0169.3692-1.366a4.7043,4.7043,0,0,0,1.9272-1.771,4.6572,4.6572,0,0,0,.7617-1.6906A7.4022,7.4022,0,0,0,25.812,15.63c.0358-.2264-.0519-.3505-.3086-.35q-4.0362.0066-8.0724,0c-.216,0-.3547.0734-.3135.3015A6.2539,6.2539,0,0,0,17.3305,17.0447Z"/><path class="e" d="M34.2171,15.2539a.8527.8527,0,0,1,.0217,1.7052.8884.8884,0,0,1-.8792-.829A.855.855,0,0,1,34.2171,15.2539Z"/><path class="e" d="M26.1545,7.9446a.9049.9049,0,0,1,.9446-.1285.8452.8452,0,0,1,.4369,1.1121.8578.8578,0,0,1-1.0636.4847.89.89,0,0,1-.55-1.0715,1.8249,1.8249,0,0,1,.1145-.2563Z"/><path class="e" d="M30.4459,12.0056a.8891.8891,0,0,1,.1885-1.0364.7807.7807,0,0,1,.8579-.1618.8288.8288,0,0,1,.5345,1.0337.848.848,0,0,1-1.0043.5909,1.8487,1.8487,0,0,1-.2617-.1Z"/><path class="g" d="M17.6744,27.3656c-.5215.0328-.5189.0329-.5092-.4742a5.25,5.25,0,0,1,2.7659-4.6826,2.9155,2.9155,0,0,0,.3047-.196.81.81,0,0,0-.0694-1.379,6.0014,6.0014,0,0,1-2.1011-1.8888l6.7878.0026a4.7043,4.7043,0,0,1-1.9272,1.771c-.606.3491-.7513.8918-.3692,1.366a1.79,1.79,0,0,0,.5241.3678,5.3792,5.3792,0,0,1,2.6452,3.8011,4.0057,4.0057,0,0,1,.066.8372c-.0159.526.0812.5084-.505.4638q-1.5044-1.8894-3.01-3.7779c-.5434-.6783-1.0769-.6781-1.6184-.0037q-1.2351,1.5383-2.4606,3.0842A3.405,3.405,0,0,0,17.6744,27.3656Z"/><path class="e" d="M17.6744,27.3656a3.405,3.405,0,0,1,.5236-.7085q1.2246-1.5465,2.4606-3.0842c.5415-.6744,1.075-.6746,1.6184.0037q1.51,1.8851,3.01,3.7779Q21.4806,27.36,17.6744,27.3656Zm3.788-.0618v.0014c.43,0,.8609.0018,1.2913-.0011.1464-.0009.3127-.0076.1408-.2149-.4352-.5252-.8768-1.0451-1.3115-1.5706-.0755-.0913-.11-.1771-.2294-.0274-.4258.5327-.87,1.05-1.3,1.58-.1083.1335-.1119.24.1179.2351C20.6015,27.2975,21.032,27.3038,21.4624,27.3038Z"/><path class="h" d="M17.3305,17.0447q4.1421.006,8.2842.0122a4.655,4.655,0,0,1-.7616,1.6907l-6.7878-.0026A4.6285,4.6285,0,0,1,17.3305,17.0447Z"/><path class="h" d="M21.4624,27.3038c-.43,0-.8609-.0063-1.2911.0025-.23.0047-.2262-.1016-.1179-.2351.43-.53.8744-1.0473,1.3-1.58.12-.15.1539-.0639.2294.0274.4347.5255.8763,1.0454,1.3115,1.5706.1719.2073.0056.214-.1408.2149-.43.0029-.8609.0011-1.2913.0011Z"/></svg>